# xmcd
#
# Track frame offsets:
#	150
#	5725
#	27485
#	47602
#	66180
#	81020
#	101800
#	121658
#	130878
#	143912
#	157427
#	179450
#
# Disc length: 2608 seconds
#
# Revision: 1
# Processed by: cddbd v1.5.2PL0 Copyright (c) Steve Scherf et al.
# Submitted via: audiograbber 1.83.01
#
DISCID=a90a2e0c
DTITLE=Ramsay Midwood - Shoot Out at the Chinese Restaurant
DYEAR=2002
DGENRE=
TTITLE0=Dreary Life
TTITLE1=Chicago
TTITLE2=Spinnin' on a Rock
TTITLE3=Mohawk River
TTITLE4=Feed My Monkey
TTITLE5=Esther
TTITLE6=Waynesboro
TTITLE7=Grass II Grow
TTITLE8=Alligator's Lament
TTITLE9=Heaven's Toll
TTITLE10=Fisherman's Friend
TTITLE11=Monster Truck
EXTD=
EXTT0=
EXTT1=
EXTT2=
EXTT3=
EXTT4=
EXTT5=
EXTT6=
EXTT7=
EXTT8=
EXTT9=
EXTT10=
EXTT11=
PLAYORDER=
